<mxfile host="app.diagrams.net" agent="Mozilla/5.0 (Windows NT 10.0; Win64; x64) AppleWebKit/537.36 (KHTML, like Gecko) Chrome/136.0.0.0 Safari/537.36" version="27.0.4">
  <diagram name="Page-1" id="ZpU2-6PbXb3Sw0firr_f">
    <mxGraphModel dx="1042" dy="562" grid="1" gridSize="10" guides="1" tooltips="1" connect="1" arrows="1" fold="1" page="1" pageScale="1" pageWidth="850" pageHeight="1100" math="0" shadow="0">
      <root>
        <mxCell id="0" />
        <mxCell id="1" parent="0" />
        <mxCell id="Jr3PD9P-5Dn5Ex43VD1L-1" value="" style="rounded=1;whiteSpace=wrap;html=1;dashed=1;" vertex="1" parent="1">
          <mxGeometry x="595" y="130" width="230" height="440" as="geometry" />
        </mxCell>
        <mxCell id="Jr3PD9P-5Dn5Ex43VD1L-2" value="" style="rounded=1;whiteSpace=wrap;html=1;dashed=1;" vertex="1" parent="1">
          <mxGeometry x="80" y="115" width="440" height="440" as="geometry" />
        </mxCell>
        <mxCell id="Jr3PD9P-5Dn5Ex43VD1L-3" value="&lt;div&gt;&amp;nbsp;crm_cust_info&amp;nbsp;&lt;/div&gt;" style="swimlane;fontStyle=0;childLayout=stackLayout;horizontal=1;startSize=30;horizontalStack=0;resizeParent=1;resizeParentMax=0;resizeLast=0;collapsible=1;marginBottom=0;whiteSpace=wrap;html=1;" vertex="1" parent="1">
          <mxGeometry x="355" y="370" width="140" height="94" as="geometry" />
        </mxCell>
        <mxCell id="Jr3PD9P-5Dn5Ex43VD1L-4" value="cst_id" style="text;strokeColor=none;fillColor=none;align=left;verticalAlign=middle;spacingLeft=4;spacingRight=4;overflow=hidden;points=[[0,0.5],[1,0.5]];portConstraint=eastwest;rotatable=0;whiteSpace=wrap;html=1;" vertex="1" parent="Jr3PD9P-5Dn5Ex43VD1L-3">
          <mxGeometry y="30" width="140" height="32" as="geometry" />
        </mxCell>
        <mxCell id="Jr3PD9P-5Dn5Ex43VD1L-5" value="cst_key" style="text;strokeColor=none;fillColor=none;align=left;verticalAlign=middle;spacingLeft=4;spacingRight=4;overflow=hidden;points=[[0,0.5],[1,0.5]];portConstraint=eastwest;rotatable=0;whiteSpace=wrap;html=1;" vertex="1" parent="Jr3PD9P-5Dn5Ex43VD1L-3">
          <mxGeometry y="62" width="140" height="32" as="geometry" />
        </mxCell>
        <mxCell id="Jr3PD9P-5Dn5Ex43VD1L-6" value="customer information" style="text;html=1;align=center;verticalAlign=middle;whiteSpace=wrap;rounded=0;" vertex="1" parent="1">
          <mxGeometry x="390" y="340" width="60" height="30" as="geometry" />
        </mxCell>
        <mxCell id="Jr3PD9P-5Dn5Ex43VD1L-7" value="current &amp;amp;history product info" style="text;html=1;align=center;verticalAlign=middle;whiteSpace=wrap;rounded=0;" vertex="1" parent="1">
          <mxGeometry x="385" y="188" width="100" height="30" as="geometry" />
        </mxCell>
        <mxCell id="Jr3PD9P-5Dn5Ex43VD1L-8" value="&lt;div&gt;&amp;nbsp;crm_prd_info&amp;nbsp;&lt;/div&gt;" style="swimlane;fontStyle=0;childLayout=stackLayout;horizontal=1;startSize=30;horizontalStack=0;resizeParent=1;resizeParentMax=0;resizeLast=0;collapsible=1;marginBottom=0;whiteSpace=wrap;html=1;" vertex="1" parent="1">
          <mxGeometry x="370" y="228" width="140" height="62" as="geometry">
            <mxRectangle x="370" y="240" width="120" height="30" as="alternateBounds" />
          </mxGeometry>
        </mxCell>
        <mxCell id="Jr3PD9P-5Dn5Ex43VD1L-9" value="prd_key" style="text;strokeColor=none;fillColor=none;align=left;verticalAlign=middle;spacingLeft=4;spacingRight=4;overflow=hidden;points=[[0,0.5],[1,0.5]];portConstraint=eastwest;rotatable=0;whiteSpace=wrap;html=1;" vertex="1" parent="Jr3PD9P-5Dn5Ex43VD1L-8">
          <mxGeometry y="30" width="140" height="32" as="geometry" />
        </mxCell>
        <mxCell id="Jr3PD9P-5Dn5Ex43VD1L-10" value="&lt;div&gt;&amp;nbsp;crm_sales_details&lt;/div&gt;" style="swimlane;fontStyle=0;childLayout=stackLayout;horizontal=1;startSize=30;horizontalStack=0;resizeParent=1;resizeParentMax=0;resizeLast=0;collapsible=1;marginBottom=0;whiteSpace=wrap;html=1;" vertex="1" parent="1">
          <mxGeometry x="90" y="290" width="140" height="90" as="geometry">
            <mxRectangle x="370" y="240" width="120" height="30" as="alternateBounds" />
          </mxGeometry>
        </mxCell>
        <mxCell id="Jr3PD9P-5Dn5Ex43VD1L-11" value="prd_key&lt;div&gt;&lt;br&gt;&lt;/div&gt;" style="text;strokeColor=none;fillColor=none;align=left;verticalAlign=middle;spacingLeft=4;spacingRight=4;overflow=hidden;points=[[0,0.5],[1,0.5]];portConstraint=eastwest;rotatable=0;whiteSpace=wrap;html=1;" vertex="1" parent="Jr3PD9P-5Dn5Ex43VD1L-10">
          <mxGeometry y="30" width="140" height="30" as="geometry" />
        </mxCell>
        <mxCell id="Jr3PD9P-5Dn5Ex43VD1L-12" value="cst_id" style="text;strokeColor=none;fillColor=none;align=left;verticalAlign=middle;spacingLeft=4;spacingRight=4;overflow=hidden;points=[[0,0.5],[1,0.5]];portConstraint=eastwest;rotatable=0;whiteSpace=wrap;html=1;" vertex="1" parent="Jr3PD9P-5Dn5Ex43VD1L-10">
          <mxGeometry y="60" width="140" height="30" as="geometry" />
        </mxCell>
        <mxCell id="Jr3PD9P-5Dn5Ex43VD1L-13" value="Transactional records about sales and others" style="text;html=1;align=center;verticalAlign=middle;whiteSpace=wrap;rounded=0;" vertex="1" parent="1">
          <mxGeometry x="100" y="241" width="120" height="40" as="geometry" />
        </mxCell>
        <mxCell id="Jr3PD9P-5Dn5Ex43VD1L-14" style="edgeStyle=orthogonalEdgeStyle;rounded=0;orthogonalLoop=1;jettySize=auto;html=1;entryX=0;entryY=0.5;entryDx=0;entryDy=0;" edge="1" parent="1" source="Jr3PD9P-5Dn5Ex43VD1L-12" target="Jr3PD9P-5Dn5Ex43VD1L-4">
          <mxGeometry relative="1" as="geometry" />
        </mxCell>
        <mxCell id="Jr3PD9P-5Dn5Ex43VD1L-15" style="edgeStyle=orthogonalEdgeStyle;rounded=0;orthogonalLoop=1;jettySize=auto;html=1;exitX=1;exitY=0.5;exitDx=0;exitDy=0;entryX=0;entryY=0.5;entryDx=0;entryDy=0;" edge="1" parent="1" source="Jr3PD9P-5Dn5Ex43VD1L-11" target="Jr3PD9P-5Dn5Ex43VD1L-9">
          <mxGeometry relative="1" as="geometry" />
        </mxCell>
        <mxCell id="Jr3PD9P-5Dn5Ex43VD1L-16" value="Extra Customer Information(birthdate)" style="text;html=1;align=center;verticalAlign=middle;whiteSpace=wrap;rounded=0;" vertex="1" parent="1">
          <mxGeometry x="645" y="320" width="100" height="30" as="geometry" />
        </mxCell>
        <mxCell id="Jr3PD9P-5Dn5Ex43VD1L-17" value="&lt;div&gt;erp_cust_az12&lt;/div&gt;" style="swimlane;fontStyle=0;childLayout=stackLayout;horizontal=1;startSize=30;horizontalStack=0;resizeParent=1;resizeParentMax=0;resizeLast=0;collapsible=1;marginBottom=0;whiteSpace=wrap;html=1;fillColor=#ffe6cc;strokeColor=#d79b00;" vertex="1" parent="1">
          <mxGeometry x="630" y="360" width="140" height="62" as="geometry">
            <mxRectangle x="370" y="240" width="120" height="30" as="alternateBounds" />
          </mxGeometry>
        </mxCell>
        <mxCell id="Jr3PD9P-5Dn5Ex43VD1L-18" value="cid" style="text;strokeColor=none;fillColor=none;align=left;verticalAlign=middle;spacingLeft=4;spacingRight=4;overflow=hidden;points=[[0,0.5],[1,0.5]];portConstraint=eastwest;rotatable=0;whiteSpace=wrap;html=1;" vertex="1" parent="Jr3PD9P-5Dn5Ex43VD1L-17">
          <mxGeometry y="30" width="140" height="32" as="geometry" />
        </mxCell>
        <mxCell id="Jr3PD9P-5Dn5Ex43VD1L-19" value="location of cuatomers(country)" style="text;html=1;align=center;verticalAlign=middle;whiteSpace=wrap;rounded=0;" vertex="1" parent="1">
          <mxGeometry x="660" y="462" width="100" height="30" as="geometry" />
        </mxCell>
        <mxCell id="Jr3PD9P-5Dn5Ex43VD1L-20" value="&lt;div&gt;erp_loc_a101&lt;/div&gt;" style="swimlane;fontStyle=0;childLayout=stackLayout;horizontal=1;startSize=30;horizontalStack=0;resizeParent=1;resizeParentMax=0;resizeLast=0;collapsible=1;marginBottom=0;whiteSpace=wrap;html=1;fillColor=#ffe6cc;strokeColor=#d79b00;" vertex="1" parent="1">
          <mxGeometry x="635" y="492" width="140" height="62" as="geometry">
            <mxRectangle x="370" y="240" width="120" height="30" as="alternateBounds" />
          </mxGeometry>
        </mxCell>
        <mxCell id="Jr3PD9P-5Dn5Ex43VD1L-21" style="edgeStyle=orthogonalEdgeStyle;rounded=0;orthogonalLoop=1;jettySize=auto;html=1;exitX=0;exitY=0.5;exitDx=0;exitDy=0;entryX=0;entryY=0.5;entryDx=0;entryDy=0;" edge="1" parent="Jr3PD9P-5Dn5Ex43VD1L-20" source="Jr3PD9P-5Dn5Ex43VD1L-22" target="Jr3PD9P-5Dn5Ex43VD1L-22">
          <mxGeometry relative="1" as="geometry">
            <mxPoint x="-75" y="-32" as="targetPoint" />
          </mxGeometry>
        </mxCell>
        <mxCell id="Jr3PD9P-5Dn5Ex43VD1L-22" value="cid" style="text;strokeColor=none;fillColor=none;align=left;verticalAlign=middle;spacingLeft=4;spacingRight=4;overflow=hidden;points=[[0,0.5],[1,0.5]];portConstraint=eastwest;rotatable=0;whiteSpace=wrap;html=1;" vertex="1" parent="Jr3PD9P-5Dn5Ex43VD1L-20">
          <mxGeometry y="30" width="140" height="32" as="geometry" />
        </mxCell>
        <mxCell id="Jr3PD9P-5Dn5Ex43VD1L-23" style="edgeStyle=orthogonalEdgeStyle;rounded=0;orthogonalLoop=1;jettySize=auto;html=1;entryX=1.016;entryY=0.806;entryDx=0;entryDy=0;entryPerimeter=0;" edge="1" parent="1" source="Jr3PD9P-5Dn5Ex43VD1L-18" target="Jr3PD9P-5Dn5Ex43VD1L-5">
          <mxGeometry relative="1" as="geometry" />
        </mxCell>
        <mxCell id="Jr3PD9P-5Dn5Ex43VD1L-24" value="" style="endArrow=none;html=1;rounded=0;" edge="1" parent="1">
          <mxGeometry width="50" height="50" relative="1" as="geometry">
            <mxPoint x="560" y="530" as="sourcePoint" />
            <mxPoint x="560" y="460" as="targetPoint" />
          </mxGeometry>
        </mxCell>
        <mxCell id="Jr3PD9P-5Dn5Ex43VD1L-25" value="" style="endArrow=none;html=1;rounded=0;entryX=0.01;entryY=0.119;entryDx=0;entryDy=0;entryPerimeter=0;" edge="1" parent="1" target="Jr3PD9P-5Dn5Ex43VD1L-22">
          <mxGeometry width="50" height="50" relative="1" as="geometry">
            <mxPoint x="560" y="526" as="sourcePoint" />
            <mxPoint x="570" y="460" as="targetPoint" />
          </mxGeometry>
        </mxCell>
        <mxCell id="Jr3PD9P-5Dn5Ex43VD1L-26" value="product catergories" style="text;html=1;align=center;verticalAlign=middle;whiteSpace=wrap;rounded=0;" vertex="1" parent="1">
          <mxGeometry x="635" y="179" width="100" height="30" as="geometry" />
        </mxCell>
        <mxCell id="Jr3PD9P-5Dn5Ex43VD1L-27" value="&lt;div&gt;erp_px_cat_g1v2&lt;/div&gt;" style="swimlane;fontStyle=0;childLayout=stackLayout;horizontal=1;startSize=30;horizontalStack=0;resizeParent=1;resizeParentMax=0;resizeLast=0;collapsible=1;marginBottom=0;whiteSpace=wrap;html=1;fillColor=#ffe6cc;strokeColor=#d79b00;" vertex="1" parent="1">
          <mxGeometry x="620" y="219" width="140" height="62" as="geometry">
            <mxRectangle x="370" y="240" width="120" height="30" as="alternateBounds" />
          </mxGeometry>
        </mxCell>
        <mxCell id="Jr3PD9P-5Dn5Ex43VD1L-28" value="id" style="text;strokeColor=none;fillColor=none;align=left;verticalAlign=middle;spacingLeft=4;spacingRight=4;overflow=hidden;points=[[0,0.5],[1,0.5]];portConstraint=eastwest;rotatable=0;whiteSpace=wrap;html=1;" vertex="1" parent="Jr3PD9P-5Dn5Ex43VD1L-27">
          <mxGeometry y="30" width="140" height="32" as="geometry" />
        </mxCell>
        <mxCell id="Jr3PD9P-5Dn5Ex43VD1L-29" style="edgeStyle=orthogonalEdgeStyle;rounded=0;orthogonalLoop=1;jettySize=auto;html=1;entryX=0.989;entryY=0.919;entryDx=0;entryDy=0;entryPerimeter=0;" edge="1" parent="1" source="Jr3PD9P-5Dn5Ex43VD1L-28" target="Jr3PD9P-5Dn5Ex43VD1L-9">
          <mxGeometry relative="1" as="geometry" />
        </mxCell>
        <mxCell id="Jr3PD9P-5Dn5Ex43VD1L-30" value="&lt;font style=&quot;font-size: 20px;&quot;&gt;&lt;b&gt;CRM&lt;/b&gt;&lt;/font&gt;" style="text;html=1;align=center;verticalAlign=middle;whiteSpace=wrap;rounded=0;" vertex="1" parent="1">
          <mxGeometry x="250" y="85" width="60" height="30" as="geometry" />
        </mxCell>
        <mxCell id="Jr3PD9P-5Dn5Ex43VD1L-31" value="&lt;font style=&quot;font-size: 20px;&quot;&gt;&lt;b&gt;ERP&lt;/b&gt;&lt;/font&gt;" style="text;html=1;align=center;verticalAlign=middle;whiteSpace=wrap;rounded=0;" vertex="1" parent="1">
          <mxGeometry x="685" y="95" width="60" height="30" as="geometry" />
        </mxCell>
        <mxCell id="Jr3PD9P-5Dn5Ex43VD1L-32" value="product&amp;nbsp;" style="text;html=1;strokeColor=#b85450;fillColor=#f8cecc;align=center;verticalAlign=middle;whiteSpace=wrap;overflow=hidden;" vertex="1" parent="1">
          <mxGeometry x="370" y="290" width="140" height="20" as="geometry" />
        </mxCell>
        <mxCell id="Jr3PD9P-5Dn5Ex43VD1L-33" value="product&amp;nbsp;" style="text;html=1;strokeColor=#b85450;fillColor=#f8cecc;align=center;verticalAlign=middle;whiteSpace=wrap;overflow=hidden;" vertex="1" parent="1">
          <mxGeometry x="620" y="281" width="140" height="20" as="geometry" />
        </mxCell>
        <mxCell id="Jr3PD9P-5Dn5Ex43VD1L-34" value="customer" style="text;html=1;strokeColor=#82b366;fillColor=#d5e8d4;align=center;verticalAlign=middle;whiteSpace=wrap;overflow=hidden;" vertex="1" parent="1">
          <mxGeometry x="355" y="462" width="140" height="20" as="geometry" />
        </mxCell>
        <mxCell id="Jr3PD9P-5Dn5Ex43VD1L-35" value="customer" style="text;html=1;strokeColor=#82b366;fillColor=#d5e8d4;align=center;verticalAlign=middle;whiteSpace=wrap;overflow=hidden;" vertex="1" parent="1">
          <mxGeometry x="630" y="422" width="140" height="20" as="geometry" />
        </mxCell>
        <mxCell id="Jr3PD9P-5Dn5Ex43VD1L-36" value="customer" style="text;html=1;strokeColor=#82b366;fillColor=#d5e8d4;align=center;verticalAlign=middle;whiteSpace=wrap;overflow=hidden;" vertex="1" parent="1">
          <mxGeometry x="635" y="550" width="140" height="20" as="geometry" />
        </mxCell>
        <mxCell id="Jr3PD9P-5Dn5Ex43VD1L-37" value="sales" style="text;html=1;strokeColor=#b85450;fillColor=#f8cecc;align=center;verticalAlign=middle;whiteSpace=wrap;overflow=hidden;" vertex="1" parent="1">
          <mxGeometry x="90" y="381" width="140" height="20" as="geometry" />
        </mxCell>
      </root>
    </mxGraphModel>
  </diagram>
</mxfile>
